<svg xmlns="http://www.w3.org/2000/svg" viewBox="0 0 32 32" fill="none">
  <defs>
    <linearGradient id="bg" x1="0" y1="0" x2="32" y2="32" gradientUnits="userSpaceOnUse">
      <stop offset="0%" stop-color="#3B82F6"/>
      <stop offset="100%" stop-color="#60A5FA"/>
    </linearGradient>
  </defs>
  <rect width="32" height="32" rx="8" fill="url(#bg)"/>
  <path d="M9 5v2m6-2v2M9 23v2m6-2v2M7 11H5m2 6H5m20-6h-2m2 6h-2M9 23h10a2 2 0 002-2V9a2 2 0 00-2-2H9a2 2 0 00-2 2v12a2 2 0 002 2zm2-12h6v6h-6v-6z" stroke="white" stroke-width="1.5" stroke-linecap="round" stroke-linejoin="round" transform="translate(2,2) scale(0.875)"/>
</svg>
